<svg width="32" height="36" viewBox="0 0 32 36" fill="none" xmlns="http://www.w3.org/2000/svg">
<path d="M16 21.3333C15.4963 21.3333 15.0744 21.1627 14.7342 20.8213C14.3929 20.4812 14.2222 20.0593 14.2222 19.5556C14.2222 19.0519 14.3929 18.6293 14.7342 18.288C15.0744 17.9479 15.4963 17.7778 16 17.7778C16.5037 17.7778 16.9262 17.9479 17.2676 18.288C17.6077 18.6293 17.7778 19.0519 17.7778 19.5556C17.7778 20.0593 17.6077 20.4812 17.2676 20.8213C16.9262 21.1627 16.5037 21.3333 16 21.3333ZM8.88889 21.3333C8.38519 21.3333 7.96267 21.1627 7.62133 20.8213C7.28119 20.4812 7.11111 20.0593 7.11111 19.5556C7.11111 19.0519 7.28119 18.6293 7.62133 18.288C7.96267 17.9479 8.38519 17.7778 8.88889 17.7778C9.39259 17.7778 9.81511 17.9479 10.1564 18.288C10.4966 18.6293 10.6667 19.0519 10.6667 19.5556C10.6667 20.0593 10.4966 20.4812 10.1564 20.8213C9.81511 21.1627 9.39259 21.3333 8.88889 21.3333ZM23.1111 21.3333C22.6074 21.3333 22.1855 21.1627 21.8453 20.8213C21.504 20.4812 21.3333 20.0593 21.3333 19.5556C21.3333 19.0519 21.504 18.6293 21.8453 18.288C22.1855 17.9479 22.6074 17.7778 23.1111 17.7778C23.6148 17.7778 24.0367 17.9479 24.3769 18.288C24.7182 18.6293 24.8889 19.0519 24.8889 19.5556C24.8889 20.0593 24.7182 20.4812 24.3769 20.8213C24.0367 21.1627 23.6148 21.3333 23.1111 21.3333ZM16 28.4444C15.4963 28.4444 15.0744 28.2738 14.7342 27.9324C14.3929 27.5923 14.2222 27.1704 14.2222 26.6667C14.2222 26.163 14.3929 25.741 14.7342 25.4009C15.0744 25.0596 15.4963 24.8889 16 24.8889C16.5037 24.8889 16.9262 25.0596 17.2676 25.4009C17.6077 25.741 17.7778 26.163 17.7778 26.6667C17.7778 27.1704 17.6077 27.5923 17.2676 27.9324C16.9262 28.2738 16.5037 28.4444 16 28.4444ZM8.88889 28.4444C8.38519 28.4444 7.96267 28.2738 7.62133 27.9324C7.28119 27.5923 7.11111 27.1704 7.11111 26.6667C7.11111 26.163 7.28119 25.741 7.62133 25.4009C7.96267 25.0596 8.38519 24.8889 8.88889 24.8889C9.39259 24.8889 9.81511 25.0596 10.1564 25.4009C10.4966 25.741 10.6667 26.163 10.6667 26.6667C10.6667 27.1704 10.4966 27.5923 10.1564 27.9324C9.81511 28.2738 9.39259 28.4444 8.88889 28.4444ZM23.1111 28.4444C22.6074 28.4444 22.1855 28.2738 21.8453 27.9324C21.504 27.5923 21.3333 27.1704 21.3333 26.6667C21.3333 26.163 21.504 25.741 21.8453 25.4009C22.1855 25.0596 22.6074 24.8889 23.1111 24.8889C23.6148 24.8889 24.0367 25.0596 24.3769 25.4009C24.7182 25.741 24.8889 26.163 24.8889 26.6667C24.8889 27.1704 24.7182 27.5923 24.3769 27.9324C24.0367 28.2738 23.6148 28.4444 23.1111 28.4444ZM3.55556 35.5556C2.57778 35.5556 1.74044 35.2077 1.04356 34.512C0.347852 33.8151 0 32.9778 0 32V7.11111C0 6.13333 0.347852 5.29659 1.04356 4.60089C1.74044 3.904 2.57778 3.55556 3.55556 3.55556H5.33333V0H8.88889V3.55556H23.1111V0H26.6667V3.55556H28.4444C29.4222 3.55556 30.2596 3.904 30.9564 4.60089C31.6521 5.29659 32 6.13333 32 7.11111V32C32 32.9778 31.6521 33.8151 30.9564 34.512C30.2596 35.2077 29.4222 35.5556 28.4444 35.5556H3.55556ZM3.55556 32H28.4444V14.2222H3.55556V32Z" fill="black"/>
</svg>
