<svg width="1.6rem" height="1.6rem" viewBox="0 0 16 16" fill="none" xmlns="http://www.w3.org/2000/svg">
<path d="M9.78 4.00065V7.00065C9.78 7.36732 9.48 7.66732 9.11333 7.66732H6.89333C6.52667 7.66732 6.22667 7.36732 6.22667 7.00065V4.00065C6.22667 3.63398 6.52667 3.33398 6.89333 3.33398H9.11333C9.48 3.33398 9.78 3.63398 9.78 4.00065ZM11.1133 7.66732H13.3333C13.7 7.66732 14 7.36732 14 7.00065V4.00065C14 3.63398 13.7 3.33398 13.3333 3.33398H11.1133C10.7467 3.33398 10.4467 3.63398 10.4467 4.00065V7.00065C10.4467 7.36732 10.74 7.66732 11.1133 7.66732ZM9.78 12.0007V9.00065C9.78 8.63398 9.48 8.33398 9.11333 8.33398H6.89333C6.52667 8.33398 6.22667 8.63398 6.22667 9.00065V12.0007C6.22667 12.3673 6.52667 12.6673 6.89333 12.6673H9.11333C9.48 12.6673 9.78 12.3673 9.78 12.0007ZM10.4467 9.00065V12.0007C10.4467 12.3673 10.7467 12.6673 11.1133 12.6673H13.3333C13.7 12.6673 14 12.3673 14 12.0007V9.00065C14 8.63398 13.7 8.33398 13.3333 8.33398H11.1133C10.74 8.33398 10.4467 8.63398 10.4467 9.00065ZM4.88667 8.33398H2.66667C2.3 8.33398 2 8.63398 2 9.00065V12.0007C2 12.3673 2.3 12.6673 2.66667 12.6673H4.88667C5.25333 12.6673 5.55333 12.3673 5.55333 12.0007V9.00065C5.55333 8.63398 5.26 8.33398 4.88667 8.33398ZM5.55333 7.00065V4.00065C5.55333 3.63398 5.25333 3.33398 4.88667 3.33398H2.66667C2.3 3.33398 2 3.63398 2 4.00065V7.00065C2 7.36732 2.3 7.66732 2.66667 7.66732H4.88667C5.26 7.66732 5.55333 7.36732 5.55333 7.00065Z" fill="black"/>
</svg>
