<svg width="1.8rem" height="1.8rem" viewBox="0 0 24 24" fill="none" xmlns="http://www.w3.org/2000/svg">
<path d="M14.4564 13.2075C16.87 12.2343 18.5742 9.87159 18.5742 7.10944C18.5742 3.47859 15.6308 0.535217 12 0.535217C8.36916 0.535217 5.42578 3.47869 5.42578 7.10953C5.42578 9.87169 7.12997 12.2343 9.54356 13.2076V15.1603H7.20525L12 23.465L16.7948 15.1603H14.4564V13.2075Z" fill="#44C7B6"/>
<path d="M12.0004 11.7536C14.5653 11.7536 16.6444 9.67439 16.6444 7.10958C16.6444 4.54477 14.5653 2.46558 12.0004 2.46558C9.43564 2.46558 7.35645 4.54477 7.35645 7.10958C7.35645 9.67439 9.43564 11.7536 12.0004 11.7536Z" fill="#FFE2E2"/>
<path d="M12.7465 11.6938C12.5038 11.7326 12.2543 11.7534 12.0008 11.7534C9.43652 11.7534 7.35742 9.67435 7.35742 7.10916C7.35742 4.54491 9.43652 2.46582 12.0008 2.46582C12.2544 2.46582 12.5038 2.48673 12.7465 2.52545C10.5361 2.88245 8.84889 4.79841 8.84889 7.10916C8.8488 9.41991 10.5361 11.3369 12.7465 11.6938Z" fill="#FFEFEE"/>
<path d="M16.6449 7.10923C16.6449 9.67451 14.5658 11.7535 12.0006 11.7535C11.747 11.7535 11.4974 11.7326 11.2549 11.6939C13.4662 11.337 15.1535 9.42091 15.1535 7.10923C15.1535 4.79848 13.4662 2.88251 11.2549 2.52551C11.4975 2.48669 11.7471 2.46588 12.0006 2.46588C14.5658 2.46588 16.6449 4.54488 16.6449 7.10923Z" fill="#FFCFCF"/>
<path d="M5.42578 7.11003C5.42578 3.47909 8.36859 0.535339 11.9995 0.535339C12.2367 0.535339 12.472 0.547527 12.7027 0.572839C9.40266 0.923464 6.83203 3.71628 6.83203 7.11003C6.83203 9.8719 8.53547 12.2344 10.9495 13.2075V15.1603H9.54328V13.2075C7.12922 12.2344 5.42578 9.8719 5.42578 7.11003Z" fill="#4BDBC3"/>
<path d="M8.6123 15.1603L12.7036 22.2469L12.0004 23.4647L7.20605 15.1603H8.6123Z" fill="#4BDBC3"/>
<path d="M15.3881 15.1603H16.7944L12 23.4647L11.2969 22.2469L15.3881 15.1603Z" fill="#3BB2A0"/>
<path d="M11.2969 0.572839C11.5275 0.547527 11.7628 0.535339 12 0.535339C15.6309 0.535339 18.5737 3.47909 18.5737 7.11003C18.5737 9.8719 16.8703 12.2344 14.4562 13.2075V15.1603H13.05V13.2075C15.4641 12.2344 17.1675 9.8719 17.1675 7.11003C17.1675 3.71628 14.5969 0.923464 11.2969 0.572839Z" fill="#3BB2A0"/>
<path d="M17.0194 7.10958C17.0194 4.34208 14.7679 2.09058 12.0004 2.09058C9.23304 2.09058 6.98145 4.34208 6.98145 7.10958C6.98145 9.87708 9.23295 12.1285 12.0004 12.1285C14.7679 12.1285 17.0194 9.87698 17.0194 7.10958ZM12.0004 11.3785C9.64657 11.3785 7.73145 9.46345 7.73145 7.10948C7.73145 4.75551 9.64657 2.84058 12.0004 2.84058C14.3543 2.84058 16.2694 4.75561 16.2694 7.10958C16.2694 9.46355 14.3543 11.3785 12.0004 11.3785Z" fill="#5F266D"/>
<path d="M12.375 7.00951V4.86292C12.375 4.65582 12.2071 4.48792 12 4.48792C11.7929 4.48792 11.625 4.65582 11.625 4.86292V7.10954C11.625 7.17282 11.6482 7.25017 11.675 7.29657L12.5915 8.88957C12.6948 9.0691 12.9239 9.13088 13.1035 9.02767C13.283 8.92435 13.3447 8.69513 13.2415 8.5156L12.375 7.00951Z" fill="#5F266D"/>
<path d="M16.7948 14.7853H14.8314V13.4558C17.3415 12.3375 18.9493 9.87378 18.9493 7.10956C18.9493 3.27771 15.8319 0.160339 12.0001 0.160339C8.16825 0.160339 5.05078 3.27771 5.05078 7.10956C5.05078 9.87387 6.6585 12.3376 9.16866 13.4558V14.7853H7.20525C6.91678 14.7853 6.73641 15.0984 6.8805 15.3478L11.6753 23.6525C11.8193 23.9023 12.1808 23.902 12.3248 23.6525L17.1195 15.3478C17.2637 15.0981 17.0829 14.7853 16.7948 14.7853ZM12 22.715L7.85475 15.5353H9.54366C9.75075 15.5353 9.91866 15.3674 9.91866 15.1603V13.2076C9.91866 13.0547 9.82575 12.917 9.68391 12.8598C7.32497 11.9086 5.80078 9.65159 5.80078 7.10956C5.80078 3.69125 8.58169 0.910339 12 0.910339C15.4183 0.910339 18.1992 3.69134 18.1992 7.10956C18.1992 9.65159 16.675 11.9086 14.3161 12.8598C14.1743 12.917 14.0813 13.0547 14.0813 13.2076V15.1603C14.0813 15.3674 14.2493 15.5353 14.4563 15.5353H16.1453L12 22.715Z" fill="#5F266D"/>
<path d="M10.4479 9.52988C9.13453 8.76422 9.04725 7.12219 9.0466 7.10569C9.03806 6.89925 8.8605 6.73847 8.65753 6.74644C8.45053 6.75441 8.28919 6.9286 8.29716 7.13559C8.30035 7.2195 8.3955 9.20156 10.0702 10.1778C10.2488 10.282 10.4786 10.2218 10.5831 10.0427C10.6873 9.86381 10.6268 9.63422 10.4479 9.52988Z" fill="#5F266D"/>
<path d="M11.9464 9.93418C11.8389 9.9294 11.7328 9.92068 11.6309 9.9084C11.4243 9.88318 11.2385 10.0301 11.2137 10.2358C11.1888 10.4414 11.3354 10.6282 11.541 10.6531C11.6615 10.6676 11.7866 10.6779 11.9129 10.6835C12.1244 10.692 12.2952 10.5291 12.3043 10.3257C12.3135 10.1186 12.1533 9.94336 11.9464 9.93418Z" fill="#5F266D"/>
</svg>
