<svg width="150" height="176" viewBox="0 0 150 176" fill="none" xmlns="http://www.w3.org/2000/svg">
<path fill-rule="evenodd" clip-rule="evenodd" d="M134.415 98.729H15.5855V153.723C15.5855 156.346 17.3055 158.66 19.8188 159.415C31.7581 162.995 65.3332 173.068 73.2918 175.457C74.4058 175.79 75.5941 175.79 76.7082 175.457C84.6667 173.068 118.242 162.995 130.181 159.415C132.694 158.66 134.415 156.346 134.415 153.723C134.415 139.951 134.415 98.729 134.415 98.729Z" fill="#DBDBDB"/>
<path fill-rule="evenodd" clip-rule="evenodd" d="M134.415 98.729H75C75 98.729 74.4237 175.706 75 175.706C75.5763 175.706 76.1497 175.623 76.7082 175.457C84.6667 173.068 118.242 162.995 130.181 159.415C132.694 158.66 134.415 156.346 134.415 153.723C134.415 139.951 134.415 98.729 134.415 98.729Z" fill="#DBDBDB"/>
<path fill-rule="evenodd" clip-rule="evenodd" d="M75 118.006L15.5855 98.729C15.5855 98.729 5.16713 114.177 0.509027 121.081C-0.0138206 121.856 -0.141562 122.828 0.161452 123.71C0.467437 124.592 1.16556 125.278 2.0538 125.57C13.3396 129.235 46.7484 140.09 55.512 142.936C56.7686 143.346 58.1471 142.874 58.8897 141.778C62.8735 135.899 75 118.006 75 118.006Z" fill="#EBEBEB"/>
<path fill-rule="evenodd" clip-rule="evenodd" d="M134.415 98.729L75 118.006C75 118.006 87.1265 135.899 91.1103 141.778C91.8529 142.874 93.2314 143.346 94.488 142.936C103.252 140.09 136.66 129.235 147.946 125.57C148.834 125.278 149.533 124.592 149.839 123.71C150.142 122.828 150.014 121.856 149.491 121.081C144.833 114.177 134.415 98.729 134.415 98.729Z" fill="#EBEBEB"/>
<path fill-rule="evenodd" clip-rule="evenodd" d="M60.6187 58.235C59.876 57.1448 58.5006 56.6724 57.244 57.0824C48.4863 59.9254 15.0686 70.7834 3.78277 74.4522C2.89452 74.7404 2.19343 75.4266 1.89042 76.3089C1.5874 77.1912 1.71515 78.1656 2.23799 78.938C6.52772 85.3013 15.5855 98.729 15.5855 98.729L75 79.3866C75 79.3866 64.3292 63.6923 60.6187 58.235Z" fill="#EBEBEB"/>
<path fill-rule="evenodd" clip-rule="evenodd" d="M147.762 78.938C148.285 78.1656 148.413 77.1912 148.11 76.3089C147.807 75.4266 147.105 74.7404 146.217 74.4522C134.931 70.7834 101.514 59.9254 92.756 57.0824C91.4994 56.6724 90.124 57.1448 89.3813 58.235C85.6708 63.6923 75 79.3866 75 79.3866L134.415 98.729C134.415 98.729 143.472 85.3013 147.762 78.938Z" fill="#EBEBEB"/>
<path fill-rule="evenodd" clip-rule="evenodd" d="M134.415 98.7291L75 79.3867L15.5855 98.7291L75 118.006L134.415 98.7291Z" fill="#DBDBDB"/>
<path fill-rule="evenodd" clip-rule="evenodd" d="M75 118.006V79.3867L15.5855 98.7291L75 118.006Z" fill="#DBDBDB"/>
<path fill-rule="evenodd" clip-rule="evenodd" d="M63.0636 87.9188C61.8278 87.1107 60.7138 86.2462 59.7245 85.3402C58.5184 84.2321 56.6379 84.3123 55.5269 85.5214C54.4188 86.7275 54.499 88.608 55.7081 89.7161C56.9231 90.833 58.2926 91.8966 59.8136 92.8918C61.1861 93.7889 63.028 93.4027 63.9251 92.0303C64.8223 90.6578 64.4361 88.8159 63.0636 87.9188Z" fill="#DBDBDB"/>
<path fill-rule="evenodd" clip-rule="evenodd" d="M53.8068 78.7927C52.9245 77.5955 52.1789 76.3923 51.5669 75.1892C50.8242 73.7276 49.0329 73.1453 47.5713 73.888C46.1097 74.6307 45.5274 76.422 46.2701 77.8836C47.0247 79.363 47.9396 80.8454 49.024 82.3159C49.9954 83.6349 51.8551 83.9172 53.177 82.9457C54.496 81.9713 54.7783 80.1117 53.8068 78.7927Z" fill="#DBDBDB"/>
<path fill-rule="evenodd" clip-rule="evenodd" d="M49.4636 66.6691C49.4933 65.4719 49.6686 64.3104 49.9894 63.1963C50.441 61.6218 49.529 59.9731 47.9515 59.5215C46.377 59.07 44.7283 59.982 44.2767 61.5595C43.8222 63.1518 43.5667 64.8124 43.5222 66.5206C43.4836 68.1604 44.7788 69.524 46.4186 69.5626C48.0585 69.6042 49.422 68.309 49.4636 66.6691Z" fill="#DBDBDB"/>
<path fill-rule="evenodd" clip-rule="evenodd" d="M54.0326 56.7467C54.7961 56.0397 55.6517 55.3861 56.5874 54.7949C57.9748 53.9186 58.3907 52.0827 57.5173 50.6983C56.6409 49.311 54.805 48.8951 53.4177 49.7685C52.1611 50.5616 51.0203 51.438 49.9954 52.3886C48.7923 53.5027 48.721 55.3831 49.835 56.5863C50.949 57.7894 52.8295 57.8607 54.0326 56.7467Z" fill="#DBDBDB"/>
<path fill-rule="evenodd" clip-rule="evenodd" d="M65.0807 51.6224C66.575 51.3461 68.1584 51.1679 69.828 51.0996C71.4678 51.0283 72.7393 49.6409 72.6709 48.0041C72.6026 46.3672 71.2153 45.0927 69.5755 45.1611C67.6148 45.2443 65.7551 45.4552 63.9994 45.779C62.3893 46.079 61.3198 47.6297 61.6198 49.2399C61.9169 50.853 63.4676 51.9195 65.0807 51.6224Z" fill="#DBDBDB"/>
<path fill-rule="evenodd" clip-rule="evenodd" d="M80.5642 51.447C83.0982 51.4767 85.457 51.3876 87.6464 51.1945C89.2803 51.0489 90.4894 49.6051 90.3438 47.9712C90.1982 46.3403 88.7545 45.1312 87.1206 45.2768C85.1153 45.452 82.9556 45.5352 80.6325 45.5055C78.9927 45.4877 77.6469 46.8037 77.6291 48.4406C77.6083 50.0804 78.9243 51.4291 80.5642 51.447Z" fill="#DBDBDB"/>
<path fill-rule="evenodd" clip-rule="evenodd" d="M97.4111 49.3735C100.352 48.4734 102.836 47.3208 104.915 45.9988C106.297 45.1165 106.707 43.2806 105.824 41.8962C104.945 40.5148 103.106 40.1049 101.722 40.9872C100.049 42.0507 98.0439 42.9657 95.6733 43.6905C94.1077 44.1718 93.2224 45.8324 93.7037 47.401C94.182 48.9695 95.8456 49.8518 97.4111 49.3735Z" fill="#DBDBDB"/>
<path fill-rule="evenodd" clip-rule="evenodd" d="M112.532 37.6837C113.934 34.7843 114.472 31.7185 114.335 28.7626C114.258 27.1228 112.865 25.8573 111.228 25.9345C109.591 26.0117 108.323 27.402 108.4 29.0389C108.495 31.0471 108.133 33.1296 107.182 35.0992C106.469 36.5757 107.087 38.3551 108.563 39.0681C110.04 39.7811 111.819 39.1602 112.532 37.6837Z" fill="#DBDBDB"/>
<path fill-rule="evenodd" clip-rule="evenodd" d="M110.64 18.2581C108.474 15.3319 105.536 13.294 102.334 12.6375C100.726 12.3107 99.155 13.3445 98.8252 14.9516C98.4984 16.5588 99.5352 18.1303 101.139 18.4601C102.987 18.8374 104.615 20.1059 105.866 21.7962C106.843 23.1122 108.706 23.3885 110.022 22.4141C111.341 21.4367 111.617 19.5741 110.64 18.2581Z" fill="#DBDBDB"/>
<path fill-rule="evenodd" clip-rule="evenodd" d="M71.8302 13.2138C75.0446 -4.98788 102.901 -3.81147 86.6839 13.2138H71.8302Z" fill="#EBEBEB"/>
<path fill-rule="evenodd" clip-rule="evenodd" d="M71.8302 17.8245C75.0446 36.0231 102.901 34.8497 86.6839 17.8245H71.8302Z" fill="#EBEBEB"/>
<path fill-rule="evenodd" clip-rule="evenodd" d="M71.5629 18.5193H91.4548C93.0947 18.5193 94.4256 17.1884 94.4256 15.5486C94.4256 13.9088 93.0947 12.5779 91.4548 12.5779H71.5629C69.926 12.5779 68.5921 13.9088 68.5921 15.5486C68.5921 17.1884 69.926 18.5193 71.5629 18.5193Z" fill="#DBDBDB"/>
</svg>
