<svg width="1.4rem" height="1.4rem" viewBox="0 0 16 16" fill="none" xmlns="http://www.w3.org/2000/svg">
<path d="M13.9993 3.33333C13.2593 3.1 12.446 3 11.666 3C10.366 3 8.96602 3.26667 7.99935 4C7.03268 3.26667 5.63268 3 4.33268 3C3.03268 3 1.63268 3.26667 0.666016 4V13.7667C0.666016 13.9333 0.832682 14.1 0.999349 14.1C1.06602 14.1 1.09935 14.0667 1.16602 14.0667C2.06602 13.6333 3.36602 13.3333 4.33268 13.3333C5.63268 13.3333 7.03268 13.6 7.99935 14.3333C8.89935 13.7667 10.5327 13.3333 11.666 13.3333C12.766 13.3333 13.8993 13.5333 14.8327 14.0333C14.8993 14.0667 14.9327 14.0667 14.9993 14.0667C15.166 14.0667 15.3327 13.9 15.3327 13.7333V4C14.9327 3.7 14.4993 3.5 13.9993 3.33333ZM13.9993 12.3333C13.266 12.1 12.466 12 11.666 12C10.5327 12 8.89935 12.4333 7.99935 13V5.33333C8.89935 4.76667 10.5327 4.33333 11.666 4.33333C12.466 4.33333 13.266 4.43333 13.9993 4.66667V12.3333Z" fill="black"/>
<path d="M11.666 7C12.2527 7 12.8193 7.06 13.3327 7.17333V6.16C12.806 6.06 12.2393 6 11.666 6C10.5327 6 9.50602 6.19333 8.66602 6.55333V7.66C9.41935 7.23333 10.466 7 11.666 7ZM8.66602 8.32667V9.43333C9.41935 9.00667 10.466 8.77333 11.666 8.77333C12.2527 8.77333 12.8193 8.83333 13.3327 8.94667V7.93333C12.806 7.83333 12.2393 7.77333 11.666 7.77333C10.5327 7.77333 9.50602 7.97333 8.66602 8.32667ZM11.666 9.55333C10.5327 9.55333 9.50602 9.74667 8.66602 10.1067V11.2133C9.41935 10.7867 10.466 10.5533 11.666 10.5533C12.2527 10.5533 12.8193 10.6133 13.3327 10.7267V9.71333C12.806 9.60667 12.2393 9.55333 11.666 9.55333Z" fill="black"/>
</svg>
