<svg height="24" viewBox="0 0 100 100" width="24" fill="none" xmlns="http://www.w3.org/2000/svg">
<path fill-rule="evenodd" clip-rule="evenodd" d="M73.44 59.3708H89.06C90.72 59.3708 92.31 58.7128 93.48 57.5409C94.655 56.3691 95.315 54.7792 95.31 53.1218C95.315 44.141 95.315 24.6026 95.315 15.6218C95.315 13.9644 94.655 12.3744 93.48 11.2026C92.31 10.0308 90.72 9.37085 89.06 9.37085C75.595 9.37085 36.905 9.37085 23.44 9.37085C21.78 9.37085 20.19 10.0308 19.02 11.2026C17.845 12.3744 17.185 13.9644 17.19 15.6218V21.8708C17.19 22.7333 17.89 23.4345 18.75 23.4345C19.61 23.4345 20.315 22.7333 20.315 21.8708C20.315 19.4953 20.315 17.3598 20.315 15.6218C20.31 14.7931 20.64 13.9981 21.23 13.4113C21.815 12.8263 22.61 12.4963 23.44 12.4963H89.06C89.89 12.4963 90.685 12.8263 91.27 13.4113C91.86 13.9981 92.19 14.7931 92.19 15.6218C92.19 24.6026 92.19 44.141 92.185 53.1218C92.19 53.9505 91.86 54.7455 91.27 55.3304C90.685 55.9173 89.89 56.2473 89.06 56.2473C85.39 56.2473 79.84 56.2473 73.44 56.2473C72.575 56.2473 71.875 56.9466 71.875 57.8091C71.875 58.6715 72.575 59.3708 73.44 59.3708Z" fill="black"/>
<path fill-rule="evenodd" clip-rule="evenodd" d="M43.75 21.877H81.25C82.1133 21.877 82.8125 21.1768 82.8125 20.3142C82.8125 19.4516 82.1133 18.7515 81.25 18.7515H43.75C42.8867 18.7515 42.1875 19.4516 42.1875 20.3142C42.1875 21.1768 42.8867 21.877 43.75 21.877Z" fill="black"/>
<path fill-rule="evenodd" clip-rule="evenodd" d="M43.75 31.252H81.25C82.1133 31.252 82.8125 30.5518 82.8125 29.6892C82.8125 28.8266 82.1133 28.1265 81.25 28.1265H43.75C42.8867 28.1265 42.1875 28.8266 42.1875 29.6892C42.1875 30.5518 42.8867 31.252 43.75 31.252Z" fill="black"/>
<path fill-rule="evenodd" clip-rule="evenodd" d="M62.5 40.627H81.25C82.1133 40.627 82.8125 39.9268 82.8125 39.0642C82.8125 38.2016 82.1133 37.5015 81.25 37.5015H62.5C61.6367 37.5015 60.9375 38.2016 60.9375 39.0642C60.9375 39.9268 61.6367 40.627 62.5 40.627Z" fill="black"/>
<path fill-rule="evenodd" clip-rule="evenodd" d="M45.3125 39.0625C45.3125 39.4769 45.1479 39.8743 44.8549 40.1674C44.5618 40.4604 44.1644 40.625 43.75 40.625C43.3356 40.625 42.9382 40.4604 42.6451 40.1674C42.3521 39.8743 42.1875 39.4769 42.1875 39.0625C42.1875 38.6481 42.3521 38.2507 42.6451 37.9576C42.9382 37.6646 43.3356 37.5 43.75 37.5C44.1644 37.5 44.5618 37.6646 44.8549 37.9576C45.1479 38.2507 45.3125 38.6481 45.3125 39.0625Z" fill="black"/>
<path fill-rule="evenodd" clip-rule="evenodd" d="M51.5625 39.0625C51.5625 39.4769 51.3979 39.8743 51.1049 40.1674C50.8118 40.4604 50.4144 40.625 50 40.625C49.5856 40.625 49.1882 40.4604 48.8951 40.1674C48.6021 39.8743 48.4375 39.4769 48.4375 39.0625C48.4375 38.6481 48.6021 38.2507 48.8951 37.9576C49.1882 37.6646 49.5856 37.5 50 37.5C50.4144 37.5 50.8118 37.6646 51.1049 37.9576C51.3979 38.2507 51.5625 38.6481 51.5625 39.0625Z" fill="black"/>
<path fill-rule="evenodd" clip-rule="evenodd" d="M57.8125 39.0625C57.8125 39.4769 57.6479 39.8743 57.3549 40.1674C57.0618 40.4604 56.6644 40.625 56.25 40.625C55.8356 40.625 55.4382 40.4604 55.1451 40.1674C54.8521 39.8743 54.6875 39.4769 54.6875 39.0625C54.6875 38.6481 54.8521 38.2507 55.1451 37.9576C55.4382 37.6646 55.8356 37.5 56.25 37.5C56.6644 37.5 57.0618 37.6646 57.3549 37.9576C57.6479 38.2507 57.8125 38.6481 57.8125 39.0625Z" fill="black"/>
<path fill-rule="evenodd" clip-rule="evenodd" d="M12.5 90.625C10.4281 90.625 8.44063 89.8016 6.975 88.3375C5.51094 86.8719 4.6875 84.8844 4.6875 82.8125C4.6875 77.7172 4.6875 70.3594 4.6875 64.0625C4.6875 56.7563 10.2594 50.7516 17.3859 50.0656C19.4828 52.8625 22.1391 54.6875 25 54.6875C27.8469 54.6875 30.4937 52.8797 32.5859 50.1031C37.6047 50.6563 42.1656 53.4 45.0016 57.6531L45.7859 58.8313L65.5922 46.9485C66.5547 46.3703 67.7547 46.3547 68.7312 46.9078C69.7078 47.461 70.3125 48.4985 70.3125 49.6203V51.4516C70.3125 52.4953 69.7906 53.4703 68.9219 54.05C64.9641 56.6891 53.6672 64.2453 49.7625 67.1094C47.1156 69.05 43.5391 69.1297 40.8078 67.3094L35.9375 64.0625V85.9375C35.9375 87.1813 35.4438 88.3735 34.5641 89.2516C33.6859 90.1313 32.4937 90.625 31.25 90.625H15.625V65.625C15.625 64.7625 14.925 64.0625 14.0625 64.0625C13.2 64.0625 12.5 64.7625 12.5 65.625V90.625Z" fill="black"/>
<path fill-rule="evenodd" clip-rule="evenodd" d="M25 26.5625C30.1734 26.5625 34.375 30.7641 34.375 35.9375C34.375 41.1109 30.1734 51.5625 25 51.5625C19.8266 51.5625 15.625 41.1109 15.625 35.9375C15.625 30.7641 19.8266 26.5625 25 26.5625Z" fill="black"/>
<path d="M29.112 66.8898L26.9127 66.5702L25.9291 64.5773C25.5492 63.8075 24.4507 63.8077 24.0709 64.5772L23.0873 66.5702L20.888 66.8898C20.0384 67.0132 19.6993 68.058 20.3138 68.657L21.9052 70.2083L21.5295 72.3987C21.3844 73.2448 22.2732 73.8902 23.0329 73.491L25 72.4567L26.9672 73.491C27.7258 73.8897 28.6156 73.2447 28.4705 72.3987L28.0948 70.2083L29.6863 68.657C30.3009 68.0578 29.9612 67.0132 29.112 66.8898ZM29.0663 68.0211L27.3077 69.7353C27.203 69.8373 27.1553 69.9843 27.18 70.1283L27.5951 72.5489C27.616 72.6704 27.4895 72.7622 27.3804 72.7049L25.2066 71.5621C25.0773 71.4941 24.9227 71.4941 24.7933 71.5621L22.6196 72.7049C22.5104 72.7623 22.384 72.6704 22.4048 72.5489L22.82 70.1283C22.8447 69.9843 22.7969 69.8373 22.6923 69.7353L20.9336 68.0211C20.8453 67.935 20.8936 67.7864 21.0157 67.7686L23.446 67.4155C23.5906 67.3944 23.7157 67.3036 23.7804 67.1726L24.8673 64.9703C24.9218 64.8598 25.0781 64.8597 25.1327 64.9703L26.2196 67.1726C26.2843 67.3036 26.4093 67.3945 26.5539 67.4155L28.9843 67.7686C29.1063 67.7864 29.1546 67.935 29.0663 68.0211Z" fill="white"/>
</svg>
