<svg width="1.8rem" height="1.8rem" viewBox="0 0 24 24" fill="none" xmlns="http://www.w3.org/2000/svg">
<path fill-rule="evenodd" clip-rule="evenodd" d="M7 2C7.55228 2 8 2.44772 8 3V4H16V3C16 2.44772 16.4477 2 17 2C17.5523 2 18 2.44772 18 3V4H19C20.6569 4 22 5.34315 22 7V13C22 13.5523 21.5523 14 21 14H15C12.7909 14 11 15.7909 11 18V21C11 21.5523 10.5523 22 10 22H5C3.34315 22 2 20.6569 2 19V7C2 5.34315 3.34315 4 5 4H6V3C6 2.44772 6.44772 2 7 2Z" fill="#2F80ED"/>
<path d="M13.2929 17.7071C12.9024 17.3166 12.9024 16.6834 13.2929 16.2929C13.6834 15.9024 14.3166 15.9024 14.7071 16.2929L16.7071 18.2929C17.0976 18.6834 17.0976 19.3166 16.7071 19.7071L14.7071 21.7071C14.3166 22.0976 13.6834 22.0976 13.2929 21.7071C12.9024 21.3166 12.9024 20.6834 13.2929 20.2929L14.5858 19L13.2929 17.7071Z" fill="#2F80ED"/>
<path d="M18.2929 17.7071C17.9024 17.3166 17.9024 16.6834 18.2929 16.2929C18.6834 15.9024 19.3166 15.9024 19.7071 16.2929L21.7071 18.2929C22.0976 18.6834 22.0976 19.3166 21.7071 19.7071L19.7071 21.7071C19.3166 22.0976 18.6834 22.0976 18.2929 21.7071C17.9024 21.3166 17.9024 20.6834 18.2929 20.2929L19.5858 19L18.2929 17.7071Z" fill="#2F80ED"/>
</svg>
