<svg width={20} height={20} fill="none" xmlns="http://www.w3.org/2000/svg" {...props}>
    <rect x={0.5} y={0.5} width={19} height={19} rx={1.5} fill="#233E8B" />
    <rect x={0.5} y={0.5} width={19} height={19} rx={1.5} stroke="#233E8B" />
    <path
      d="M16.142 14.406V12.11a.615.615 0 0 0-.149-.406.477.477 0 0 0-.357-.168.477.477 0 0 0-.358.168.616.616 0 0 0-.148.406v2.296a.615.615 0 0 1-.148.406.477.477 0 0 1-.358.168H5.518a.477.477 0 0 1-.358-.168.615.615 0 0 1-.148-.406V12.11a.615.615 0 0 0-.148-.406.477.477 0 0 0-.358-.168.477.477 0 0 0-.358.168.615.615 0 0 0-.148.406v2.296c0 .457.16.895.445 1.218.284.322.67.504 1.073.504h9.106c.402 0 .788-.181 1.073-.504.285-.323.445-.761.445-1.218Zm-3.228-2.996-2.53 2.296a.47.47 0 0 1-.313.123.47.47 0 0 1-.314-.123l-2.53-2.296a.628.628 0 0 1-.049-.775.497.497 0 0 1 .318-.21.458.458 0 0 1 .359.09l1.71 1.549v-7.99c0-.152.053-.298.148-.406a.477.477 0 0 1 .358-.168c.134 0 .263.06.358.168a.616.616 0 0 1 .148.406v7.99l1.71-1.55a.5.5 0 0 1 .177-.123.45.45 0 0 1 .406.033.527.527 0 0 1 .16.15.607.607 0 0 1 .093.211.65.65 0 0 1-.063.457.546.546 0 0 1-.146.168Z"
      fill="#fff"
    />
</svg>