<svg width="25" height="25" viewBox="0 0 30 30" fill="none" xmlns="http://www.w3.org/2000/svg">
<mask id="path-1-inside-1_513_5064" fill="white">
<path fill-rule="evenodd" clip-rule="evenodd" d="M0 15C0 6.72 6.72 0 15 0C23.28 0 30 6.72 30 15C30 23.28 23.28 30 15 30C6.72 30 0 23.28 0 15ZM12 18.255L21.885 8.37L24 10.5L12 22.5L6 16.5L8.115 14.385L12 18.255Z"/>
</mask>
<path fill-rule="evenodd" clip-rule="evenodd" d="M0 15C0 6.72 6.72 0 15 0C23.28 0 30 6.72 30 15C30 23.28 23.28 30 15 30C6.72 30 0 23.28 0 15ZM12 18.255L21.885 8.37L24 10.5L12 22.5L6 16.5L8.115 14.385L12 18.255Z" fill="#07B475"/>
<path d="M21.885 8.37L22.4527 7.80632L21.887 7.23663L21.3193 7.80431L21.885 8.37ZM12 18.255L11.4354 18.8218L12.0011 19.3853L12.5657 18.8207L12 18.255ZM24 10.5L24.5657 11.0657L25.1294 10.502L24.5677 9.93632L24 10.5ZM12 22.5L11.4343 23.0657L12 23.6314L12.5657 23.0657L12 22.5ZM6 16.5L5.43431 15.9343L4.86863 16.5L5.43431 17.0657L6 16.5ZM8.115 14.385L8.67959 13.8182L8.11391 13.2547L7.54931 13.8193L8.115 14.385ZM15 -0.8C6.27817 -0.8 -0.8 6.27817 -0.8 15H0.8C0.8 7.16183 7.16183 0.8 15 0.8V-0.8ZM30.8 15C30.8 6.27817 23.7218 -0.8 15 -0.8V0.8C22.8382 0.8 29.2 7.16183 29.2 15H30.8ZM15 30.8C23.7218 30.8 30.8 23.7218 30.8 15H29.2C29.2 22.8382 22.8382 29.2 15 29.2V30.8ZM-0.8 15C-0.8 23.7218 6.27817 30.8 15 30.8V29.2C7.16183 29.2 0.8 22.8382 0.8 15H-0.8ZM21.3193 7.80431L11.4343 17.6893L12.5657 18.8207L22.4507 8.93569L21.3193 7.80431ZM24.5677 9.93632L22.4527 7.80632L21.3173 8.93368L23.4323 11.0637L24.5677 9.93632ZM12.5657 23.0657L24.5657 11.0657L23.4343 9.93431L11.4343 21.9343L12.5657 23.0657ZM5.43431 17.0657L11.4343 23.0657L12.5657 21.9343L6.56569 15.9343L5.43431 17.0657ZM7.54931 13.8193L5.43431 15.9343L6.56569 17.0657L8.68069 14.9507L7.54931 13.8193ZM12.5646 17.6882L8.67959 13.8182L7.55041 14.9518L11.4354 18.8218L12.5646 17.6882Z" fill="#DDFFEB" mask="url(#path-1-inside-1_513_5064)"/>
<path d="M8.5 14L5.5 16.5L12 23L24 10.5L22 8L11.5 17.5L8.5 14Z" fill="#DDFFEB"/>
</svg>